<?xml version="1.0" encoding="utf-8"?>
<!-- Generator: Adobe Illustrator 29.8.1, SVG Export Plug-In . SVG Version: 9.03 Build 0)  -->
<svg version="1.1" baseProfile="tiny" id="Layer_1" xmlns="http://www.w3.org/2000/svg" xmlns:xlink="http://www.w3.org/1999/xlink"
	 x="0px" y="0px" viewBox="0 0 24 24" overflow="visible" xml:space="preserve">
<g>
	<path d="M14.36,0.66c-0.2,0-0.37,0.06-0.48,0.18L7.92,6.79H5.27c-0.65,0-1.19,0.53-1.19,1.19v7.88c0,0.65,0.53,1.19,1.19,1.19h2.66
		l5.95,5.95c0.22,0.22,0.53,0.35,0.84,0.35c0.3,0,1.19-0.62,1.19-1.19V1.68C15.91,1.05,14.82,0.66,14.36,0.66z M4.88,15.85V7.98
		c0-0.21,0.17-0.39,0.39-0.39h2.42v8.65H5.27C5.05,16.24,4.88,16.07,4.88,15.85z M14.65,22.53c-0.08-0.01-0.15-0.05-0.21-0.11
		l-5.96-5.95V7.36l5.9-5.89c0.22,0.01,0.6,0.19,0.72,0.3l0.01,20.36C15.07,22.22,14.8,22.45,14.65,22.53z"/>
	<path d="M19.52,4.58c-0.22,0-0.4,0.18-0.4,0.4v13.96c0,0.22,0.18,0.4,0.4,0.4s0.4-0.18,0.4-0.4V4.98
		C19.92,4.76,19.74,4.58,19.52,4.58z"/>
	<path d="M17.48,6.48c-0.22,0-0.4,0.18-0.4,0.4v10.97c0,0.22,0.18,0.4,0.4,0.4s0.4-0.18,0.4-0.4V6.88
		C17.88,6.66,17.7,6.48,17.48,6.48z"/>
</g>
<line fill="none" stroke="#CE0E2D" stroke-width="2" stroke-miterlimit="10" x1="3.81" y1="1.38" x2="20.96" y2="21.55"/>
</svg>
